PathFileType	4	(X/Y/Z)	39_2_40_p1_0-581_filt_butterworth.trc
DataRate	CameraRate	NumFrames	NumMarkers	Units	OrigDataRate	OrigDataStartFrame	OrigNumFrames
49.0	49.0	7	27	m	49.0	217	581
Frame#	Time	RHip			RKnee			RAnkle			RBigToe			RSmallToe			RHeel			LHip			LKnee			LAnkle			LBigToe			LSmallToe			LHeel			Neck			Head			Nose			RShoulder			RElbow			RWrist			RThumb			RIndex			RPinky			LShoulder			LElbow			LWrist			LThumb			LIndex			LPinky			
		X1	Y1	Z1	X2	Y2	Z2	X3	Y3	Z3	X4	Y4	Z4	X5	Y5	Z5	X6	Y6	Z6	X7	Y7	Z7	X8	Y8	Z8	X9	Y9	Z9	X10	Y10	Z10	X11	Y11	Z11	X12	Y12	Z12	X13	Y13	Z13	X14	Y14	Z14	X15	Y15	Z15	X16	Y16	Z16	X17	Y17	Z17	X18	Y18	Z18	X19	Y19	Z19	X20	Y20	Z20	X21	Y21	Z21	X22	Y22	Z22	X23	Y23	Z23	X24	Y24	Z24	X25	Y25	Z25	X26	Y26	Z26	X27	Y27	Z27	
217	4.428571428571429	0.3137002224396687	0.8334729229043397	0.7433167627986952	0.2598642897379164	0.37551212862991123	0.8045812586103728	0.22372645050555434	-0.013345372865329538	0.8311581803057555	0.2131412298302526	-0.030285380426343517	0.6653883420043375	0.2771740637078493	-0.041211481141384995	0.6846517716771564	0.19558114202315421	-0.08024697769924247	0.9061789662643236	0.07719158515147675	0.8509558071318751	0.7804089992062144	0.05106533368386607	0.4096151597670749	0.8031847385781717	0.03164061176170292	0.003134493740650335	0.8422386745731818	0.05848892932704105	-5.354781734143166e-05	0.6451944940652246	0.0005807748139299649	-0.016324125602262367	0.6961554407021288	0.04564346235116776	-0.05714150707379665	0.8765079930633755	0.25879088333602174	1.3854904529230505	0.7292333369702183	0.29086922117037134	1.612669121306258	0.6736257751929166	0.2524476879595052	1.5065390525300173	0.6362906073500284	0.42101843774153475	1.2597555797603555	0.7613353160044876	0.4413704212499756	1.0155139130004387	0.731929444078862	0.415766930108277	0.7609855569323856	0.696170020253028	0.34699711794970056	0.6329022595469289	0.7038131166683571	0.363375115957394	0.6124978952480056	0.7027914849572656	0.3965391242189726	0.6108764376192098	0.7518220555676138	0.08493445477043289	1.3112264740938249	0.7999098184366962	0.005968718266099073	1.060491867242769	0.7973469247534491	-0.041528869936230374	0.792248938264644	0.7631640721581539	-0.02215941689317137	0.6761914101698852	0.758025404543112	-0.04707894835076687	0.6645248689231065	0.7651459924268555	-0.06104335273291104	0.6743483605016044	0.7540682538881585	
218	4.448979591836735	0.31403732106210674	0.8339408647103825	0.7417459464871012	0.25978126938406615	0.3756086674427952	0.8041227847975144	0.22373510761656362	-0.013473757367560707	0.8310809052492172	0.21314518644649127	-0.030268601542520916	0.6654109485537828	0.27627714829935307	-0.04268254130101497	0.6871318626086523	0.19531702940426193	-0.07995085759408338	0.9046878269451057	0.0775648514996717	0.8510136808179367	0.7797691613973285	0.05151335058353276	0.40915998928474184	0.803374706593609	0.03183617851304557	0.003658442447896912	0.8423715393864534	0.05849511445623726	-6.588189645397036e-05	0.6452281575860747	0.0005864353254044957	-0.016346296830901365	0.6962039200923862	0.04606211352263763	-0.05673839803730324	0.8769479399489117	0.25879690112610365	1.3854886933074158	0.7292116289509696	0.2908272774954661	1.6127292051075302	0.673289366043768	0.25203869843002374	1.506677832665202	0.6344699168191367	0.42104992433260474	1.2596617234012304	0.7615038610659718	0.44135965251854714	1.0161078550371392	0.7320664835330659	0.41573137535287114	0.7609099356308338	0.6960772669330682	0.3470164693871044	0.632779474943099	0.7038075132603666	0.3633961189146875	0.6125113334235633	0.7027826643370737	0.39653301231971827	0.6104735427651546	0.7519523370371425	0.08493833994500935	1.3112745629633145	0.7998982719099195	0.005936746568196854	1.0596287233051636	0.7975699841227499	-0.04159601346062988	0.7913727404302277	0.7630388760867227	-0.023393696238452	0.67541942530174	0.7579029015456671	-0.04716221717413375	0.6641203002132172	0.7647566182264478	-0.061372685357080944	0.6753700173065142	0.7515945499421999	
219	4.469387755102041	0.31438231566976016	0.8344278541642628	0.7401172479938523	0.25972132640204787	0.37575503591172954	0.8037851842936621	0.22376695481025874	-0.013766479630748063	0.831089178245616	0.21319254763173728	-0.03031270710328223	0.6655487613153576	0.27565262524801404	-0.04347493684521929	0.6885017086282256	0.19509184799947613	-0.080070171810167	0.9034850069850296	0.07801100597754212	0.851142624949702	0.7789842367212202	0.05195212891721712	0.4088821014511916	0.8036005425198997	0.03210107171662729	0.004054925406359572	0.842569943943847	0.05850156641120066	-5.6633117838350566e-05	0.6452204090027955	0.0005975861086067197	-0.01635171139362803	0.6962194776934483	0.046322063244689564	-0.05641186926809498	0.8773738418905332	0.2588011729032854	1.3854937742997449	0.7291857894460141	0.2915577277148042	1.613101963280262	0.6714934507715764	0.25152146597798686	1.506857623454481	0.63222371744538	0.420941297150593	1.2597958596969074	0.761092070326637	0.4413662809378569	1.0163484373450629	0.7322068250289889	0.41575135943711417	0.7608560208899379	0.6961243596544716	0.3470489639063613	0.632754364742386	0.7037898417078803	0.36342822845924017	0.6125163195169966	0.7027325391676189	0.3966005787527561	0.6096039885254523	0.7519533027282119	0.08492823761291338	1.3111821005066997	0.7998818708759199	0.0059170795067717335	1.058678837618319	0.7978283094537383	-0.041664636826666504	0.7904428571728523	0.762894524332786	-0.023572078431391308	0.6747908992836082	0.7569999611614687	-0.047246625698044484	0.6633993265571366	0.7642577118163898	-0.061644044030750855	0.6759688797672188	0.7490615057466717	
220	4.489795918367347	0.31477175143183855	0.8348683605366057	0.7386464454722129	0.259734193458884	0.3758064674632193	0.8037528175597857	0.22381881597607595	-0.014211303582605112	0.8311742789662224	0.21330009191538474	-0.030512921864686605	0.6659495413228461	0.27534109599834145	-0.04364006409757048	0.6888254052487165	0.19490414254992466	-0.08063212950724338	0.9027855629299292	0.0785200917308933	0.8513486008486784	0.7780740954545818	0.05232637337702994	0.40883132721840665	0.803872359985597	0.032410117145442785	0.004330846526980556	0.8427927599069936	0.05850597287633935	-4.214940696294078e-05	0.6451967238352876	0.0006066496571695575	-0.016346293399808996	0.6962075802903966	0.046388957150591506	-0.056094541651197725	0.8776666033750774	0.25880190271947096	1.3854975307595263	0.7291593392539829	0.2927650918052969	1.6137859818499034	0.6686898584203721	0.25096918640797106	1.5070511786041165	0.6298578526868739	0.42086630126377866	1.2601801017561123	0.7607157349634125	0.4413878929269953	1.0162617837030994	0.7322844570390963	0.4157904225415768	0.7608247366600503	0.696182434918396	0.347085349957972	0.632744370189005	0.7037646348864636	0.3634646602894517	0.6125076420730395	0.7026570669783849	0.39670694410155893	0.608619316975531	0.7518286641978988	0.08492360168972428	1.3110986823442223	0.7998821950790675	0.005926713176088795	1.0577469269432243	0.7980307583475629	-0.04163975584515027	0.7893834053195414	0.7633284432068027	-0.022422313755523393	0.6743836102893328	0.7550030541088736	-0.04725904213232214	0.6624466351422597	0.7642459538290544	-0.06176764199210276	0.675859479344771	0.7473516128776414	
221	4.510204081632653	0.3151963228941598	0.8352533771099073	0.7373626537516542	0.25982446346504995	0.37569539913435035	0.8040464799725241	0.22387887938041076	-0.014720700345746712	0.831302394735198	0.2133631582918824	-0.03072313919351738	0.6663415481958923	0.27523506020128397	-0.043581931825158765	0.6887449046224088	0.19474049509286076	-0.0815211465335023	0.9024461512929612	0.07908363546875265	0.8516315501389594	0.7770791588970818	0.052627211668189296	0.40884370431188466	0.8041586805879476	0.032661148474908704	0.004507995853148594	0.8429543743399155	0.058506865227579655	-3.6089458373314565e-05	0.645179829923789	0.0006086715774758233	-0.01634251180301162	0.6961893761376539	0.04630937751006139	-0.05569993692033999	0.8777747649163374	0.2587937754975582	1.3854657534571715	0.7291340093810595	0.2938529986597785	1.6146027924723834	0.6660933784069194	0.250450463828043	1.5072332719500439	0.6276359951857293	0.42091832906038507	1.2607036248302492	0.7607538002486502	0.44140316152409964	1.0161917048640412	0.7322529846352575	0.4158259273365581	0.7607983772491882	0.6962078870655528	0.3471174701299423	0.6327506741815686	0.7037527409154978	0.3634988401391854	0.6124865564694952	0.7025896444463081	0.39676714976986294	0.6078511817826802	0.7515347012769167	0.08492856476842639	1.3110789354962211	0.7999084538260646	0.005956307247889498	1.0570563069467622	0.7981144039149597	-0.041457168862373966	0.7882036209558161	0.7647148934758243	-0.019981789062912196	0.6742936671325738	0.7518737883327267	-0.04719874851378518	0.6614920434247594	0.7651437271827023	-0.06173059223424572	0.6751217347635728	0.7468915847875908	
222	4.530612244897959	0.31561901034895	0.8356081761691718	0.7361785861733584	0.2599733636034641	0.3754069738591264	0.8045786492059991	0.22393792164398652	-0.015209012505400868	0.831454397967554	0.2132002564399677	-0.030560939569432503	0.6660652914262754	0.2752304355491385	-0.043561219039789045	0.6886806939209814	0.19461855164461983	-0.08253350115439961	0.9022631920869296	0.0796862722571019	0.851984134950496	0.7760371748444049	0.052870892142816026	0.40870089557565004	0.8044251136719047	0.032823808497685306	0.004628949264591634	0.8430402120093164	0.058504252036724866	-3.594986369795383e-05	0.6451658925272101	0.0006032274121053507	-0.016345967518532185	0.6961807383724766	0.046174103188644795	-0.0552591957237221	0.8777731451091212	0.258772063245274	1.3853663987091798	0.7291118370645986	0.29420956546914234	1.6152767855272898	0.6649359664481693	0.25003976143538154	1.5073778181891029	0.6258411297880853	0.4210859217006022	1.2612327757292858	0.7612074744989401	0.4413960086160115	1.0164570322048323	0.7321239122107887	0.4158204414498061	0.7608190064113127	0.6961065885206245	0.3471375706825882	0.6328264314574688	0.7037715890062878	0.3635258308601058	0.6124642307680312	0.7025589046568022	0.39671680965488665	0.6074115064763635	0.751041580961721	0.08493506005768033	1.3110862083648767	0.799943134267562	0.005931217660988141	1.056823727197947	0.7982151333394999	-0.04113645387134485	0.7870783672984668	0.7669010896663738	-0.01659398756141107	0.6744701827731323	0.7482927855725475	-0.04709518201699896	0.6605695391330393	0.766958571225806	-0.061588579978384884	0.6741380061099947	0.7470572339024187	
223	4.551020408163265	0.3160156243475322	0.8359450251622708	0.7350519585966578	0.2601702713269194	0.37495884321518874	0.8052902700244643	0.22400563214153607	-0.015647474284627372	0.8316935213584085	0.21280317936068333	-0.029803731293942134	0.6647571189951086	0.2753987810362024	-0.04330408639735296	0.6881982415870785	0.19456017094572078	-0.08352490611780716	0.9021955220082777	0.0803037134310726	0.8523763989784476	0.7749775262845613	0.05306524986750531	0.4083578540838009	0.8046519131765211	0.03296921700882956	0.004747446325432225	0.8430905872804939	0.0584982727807543	-3.6316192802185454e-05	0.6451467572274309	0.0005890388343386927	-0.01635664686290402	0.6961894909077614	0.04606259339995576	-0.054894499551695876	0.877767880737511	0.25874356409241694	1.3852655623814427	0.7290958680158349	0.2935848689992175	1.615609470212029	0.6656509478521817	0.24980218889827077	1.5074617649267121	0.624761316777313	0.42125967856940905	1.2617983089304026	0.7616839565948509	0.44136911567007797	1.0170909575134806	0.7319320000613416	0.4157431197845609	0.7609326784546804	0.6957749516573618	0.3471463642169791	0.6329276367755227	0.7037991655745701	0.3635425194415871	0.6124503745842389	0.7025689144846634	0.3966349097731797	0.6071214587906356	0.7506214543386358	0.08493678680861264	1.3110872963399567	0.7999610079986308	0.005790476618486511	1.0570164122811594	0.7984967476549799	-0.040739515411366445	0.7861614738206933	0.769508095465664	-0.013040662978797572	0.674646987577255	0.7453841114276493	-0.04694453104434787	0.6594545794986157	0.7695717547677825	-0.061421841585113476	0.6733014112054203	0.7469346959140843	
